<svg width="12" height="12" viewBox="0 0 12 12" fill="none" xmlns="http://www.w3.org/2000/svg">
<mask id="mask0_23_598" style="mask-type:alpha" maskUnits="userSpaceOnUse" x="0" y="0" width="12" height="12">
<circle cx="6" cy="6" r="6" fill="#D9D9D9"/>
</mask>
<g mask="url(#mask0_23_598)">
<path d="M15 0H-3V12H15V0Z" fill="#120D68"/>
<path d="M4.51537 7.97095V8.32568L-0.99623 12H-1.69751L4.34761 7.97095H4.51537Z" fill="white"/>
<path d="M13.6975 0L7.6531 4.02991H7.48462V3.67433L12.9962 0H13.6975Z" fill="white"/>
<path d="M15 10.664V11.1314L10.2573 7.97095H10.9586L15 10.664Z" fill="white"/>
<path d="M1.7412 4.02993H1.03992L-3 1.33683V0.868652L1.7412 4.02993Z" fill="white"/>
<path d="M15 11.1314V12L8.95483 7.97095H10.2573L15 11.1314Z" fill="#C61A33"/>
<path d="M15 0L8.95628 4.02991H7.65308L13.6975 0H15Z" fill="#C61A33"/>
<path d="M15 0V1.33681L10.9593 4.02991H8.9563L15 0Z" fill="white"/>
<path d="M4.3476 7.97095L-1.69752 12H-3L3.04512 7.97095H4.3476Z" fill="#C61A33"/>
<path d="M3.04512 7.97095L-3 12V10.664L1.04064 7.97095H3.04512Z" fill="white"/>
<path d="M4.51536 3.67518V4.02991H3.04368L-3 0H-0.99624L4.51536 3.67518Z" fill="white"/>
<path d="M15 12H12.9962L7.48462 8.32653V7.97095H8.95486L15 12Z" fill="white"/>
<path d="M3.04368 4.02991H1.7412L-3 0.868633V0L3.04368 4.02991Z" fill="#C61A33"/>
<path d="M15 7.97093H7.48464V12.0008H4.51608V7.97093H-3V4.02991H4.51536V0H7.48392V4.02907H14.9993V7.97009L15 7.97093Z" fill="white"/>
<path d="M15 4.81642V7.18358H6.89208V12H5.10792V7.18358H-3V4.81642H5.10792V0H6.89208V4.81642H15Z" fill="#C61A33"/>
</g>
</svg>
