<svg width="12" height="12" viewBox="0 0 12 12" fill="none" xmlns="http://www.w3.org/2000/svg">
<mask id="mask0_23_592" style="mask-type:alpha" maskUnits="userSpaceOnUse" x="0" y="0" width="12" height="12">
<circle cx="6" cy="6" r="6" fill="#D9D9D9"/>
</mask>
<g mask="url(#mask0_23_592)">
<path d="M-2 12V0L6.99982 5.99964L-2 12Z" fill="#1F3D7E"/>
<path d="M6.99982 5.99963L-2 12C1.12114 12 14.0564 12 15.9996 12V6.00035H6.99982V5.99963Z" fill="#D42025"/>
<path d="M-2 0L6.99982 5.99964H15.9996V0H-2Z" fill="white"/>
<path d="M16.9996 0H-1V4.00024H16.9996V0Z" fill="white"/>
<path d="M16.9996 7.99976H-1V12H16.9996V7.99976Z" fill="#CD1127"/>
<path d="M16.9996 4.00024H-1V7.99976H16.9996V4.00024Z" fill="#0039A7"/>
<path d="M4.33023 9.17406C2.73762 8.47999 1.77212 7.11562 1.81172 5.61373L1.88516 2.81802H6.9157L6.98914 5.61373C7.02874 7.11562 6.06323 8.47999 4.47063 9.17406L4.40079 9.2043L4.33095 9.17406H4.33023Z" fill="white"/>
<path d="M6.31377 7.4173C5.88034 8.11065 5.19779 8.66503 4.40005 9.01279C3.60231 8.66503 2.91976 8.11137 2.48633 7.4173C3.094 6.38124 3.63254 7.2841 3.63254 7.2841C3.74702 6.87659 4.14014 6.57996 4.40005 6.57996C4.65996 6.57996 5.05308 6.87587 5.16755 7.2841C5.16755 7.2841 5.7061 6.38124 6.31377 7.4173Z" fill="#0039A7"/>
<path d="M6.31358 7.4173C5.70592 6.38125 5.16737 7.28411 5.16737 7.28411C5.05289 6.8766 4.65978 6.57996 4.39986 6.57996C4.13995 6.57996 3.74684 6.87588 3.63236 7.28411C3.63236 7.28411 3.09381 6.38125 2.48614 7.4173C2.15567 6.88883 1.96991 6.27901 1.98719 5.61806L2.05559 2.99371H6.74414L6.81325 5.61806C6.83053 6.27901 6.64478 6.88883 6.3143 7.4173H6.31358Z" fill="#CD1127"/>
<path d="M4.19308 5.67349V6.63035C4.2658 6.59795 4.33708 6.58067 4.39972 6.58067C4.46235 6.58067 4.53363 6.59867 4.60707 6.63035V5.67349H5.06138L5.86633 5.81244V5.12054L5.06138 5.25949H4.60707V4.57911H4.78995L5.59489 4.71807V4.02616L4.78995 4.16512H4.60707V4.12984L4.74531 3.21906H4.05412L4.19236 4.12984V4.16512H4.00948L3.20454 4.02616V4.71807L4.00948 4.57911H4.19236V5.25949H3.73805L2.93311 5.12054V5.81244L3.73805 5.67349H4.19236H4.19308Z" fill="white"/>
</g>
</svg>
