<svg width="215" height="37" viewBox="0 0 215 37" fill="none" xmlns="http://www.w3.org/2000/svg">
<g clip-path="url(#clip0_306_210)">
<path d="M7.45636 28.3921L0 1.00952H5.52174L10.6002 22.7983L16.5652 1.00952H22.2482L28.052 22.7983L33.1304 1.00952H38.6925L31.0346 28.3921H24.9083L19.3059 8.08988L13.5424 28.3921H7.45636Z" fill="white"/>
<path d="M49.7775 28.8614C47.8428 28.8614 46.0963 28.4311 44.5379 27.5705C43.0063 26.7098 41.7837 25.5233 40.8701 24.0107C39.9834 22.4721 39.54 20.6988 39.54 18.6907C39.54 16.6827 39.9969 14.9223 40.9104 13.4098C41.824 11.8711 43.0466 10.6715 44.5782 9.81093C46.1366 8.95027 47.8831 8.52002 49.8178 8.52002C51.7255 8.52002 53.4451 8.95027 54.9767 9.81093C56.5352 10.6715 57.7578 11.8711 58.6445 13.4098C59.558 14.9223 60.0149 16.6827 60.0149 18.6907C60.0149 20.6988 59.558 22.4721 58.6445 24.0107C57.7578 25.5233 56.5352 26.7098 54.9767 27.5705C53.4183 28.4311 51.6852 28.8614 49.7775 28.8614ZM49.7775 24.5192C51.1209 24.5192 52.2897 24.0368 53.2839 23.0719C54.2781 22.0809 54.7752 20.6205 54.7752 18.6907C54.7752 16.7609 54.2781 15.3135 53.2839 14.3486C52.2897 13.3576 51.1344 12.8621 49.8178 12.8621C48.4474 12.8621 47.2652 13.3576 46.271 14.3486C45.3037 15.3135 44.82 16.7609 44.82 18.6907C44.82 20.6205 45.3037 22.0809 46.271 23.0719C47.2652 24.0368 48.4339 24.5192 49.7775 24.5192Z" fill="white"/>
<path d="M64.6274 28.3919V8.98941H69.2222L69.7058 12.6274C70.4313 11.3756 71.4121 10.3846 72.648 9.65447C73.9109 8.89815 75.3888 8.52002 77.0816 8.52002V13.8009H75.6307C74.5021 13.8009 73.4945 13.9705 72.6078 14.3095C71.721 14.6485 71.0224 15.2352 70.5119 16.0698C70.0282 16.9043 69.7865 18.0648 69.7865 19.5512V28.3919H64.6274Z" fill="white"/>
<path d="M80.6079 28.392V0.227051H85.7669V16.8522L92.8604 8.98945H98.9865L90.8046 17.8301L100.317 28.392H93.8685L85.7669 18.6516V28.392H80.6079Z" fill="white"/>
<path d="M103.717 28.392V8.9895H108.876V28.392H103.717Z" fill="white"/>
<path d="M123.853 28.8614C121.919 28.8614 120.172 28.4311 118.613 27.5705C117.081 26.7098 115.859 25.5233 114.946 24.0107C114.059 22.4721 113.615 20.6988 113.615 18.6907C113.615 16.6827 114.072 14.9223 114.986 13.4098C115.899 11.8711 117.122 10.6715 118.654 9.81093C120.212 8.95027 121.958 8.52002 123.893 8.52002C125.801 8.52002 127.521 8.95027 129.052 9.81093C130.611 10.6715 131.833 11.8711 132.72 13.4098C133.633 14.9223 134.09 16.6827 134.09 18.6907C134.09 20.6988 133.633 22.4721 132.72 24.0107C131.833 25.5233 130.611 26.7098 129.052 27.5705C127.493 28.4311 125.761 28.8614 123.853 28.8614ZM123.853 24.5192C125.196 24.5192 126.366 24.0368 127.36 23.0719C128.354 22.0809 128.851 20.6205 128.851 18.6907C128.851 16.7609 128.354 15.3135 127.36 14.3486C126.366 13.3576 125.21 12.8621 123.893 12.8621C122.523 12.8621 121.34 13.3576 120.346 14.3486C119.379 15.3135 118.895 16.7609 118.895 18.6907C118.895 20.6205 119.379 22.0809 120.346 23.0719C121.34 24.0368 122.509 24.5192 123.853 24.5192Z" fill="white"/>
<path d="M137.01 28.3921L147.329 1.00952H153.133L163.45 28.3921H157.969L155.712 22.055H144.709L142.412 28.3921H137.01ZM146.119 18.1432H154.301L150.19 6.75987L146.119 18.1432Z" fill="white"/>
<path d="M166.964 36.9979V8.98941H171.558L172.122 11.7668C172.768 10.9062 173.614 10.1499 174.661 9.49801C175.736 8.84602 177.12 8.52002 178.814 8.52002C180.694 8.52002 182.373 8.96334 183.851 9.85006C185.329 10.7367 186.498 11.9493 187.358 13.488C188.217 15.0266 188.648 16.7739 188.648 18.7298C188.648 20.6857 188.217 22.433 187.358 23.9716C186.498 25.4841 185.329 26.6838 183.851 27.5705C182.373 28.4311 180.694 28.8614 178.814 28.8614C177.308 28.8614 175.992 28.5875 174.863 28.0399C173.734 27.4922 172.821 26.7229 172.122 25.7319V36.9979H166.964ZM177.725 24.4802C179.364 24.4802 180.721 23.9455 181.796 22.8763C182.871 21.807 183.408 20.4249 183.408 18.7298C183.408 17.0347 182.871 15.6395 181.796 14.5442C180.721 13.4489 179.364 12.9012 177.725 12.9012C176.059 12.9012 174.689 13.4489 173.614 14.5442C172.566 15.6134 172.042 16.9956 172.042 18.6907C172.042 20.3858 172.566 21.781 173.614 22.8763C174.689 23.9455 176.059 24.4802 177.725 24.4802Z" fill="white"/>
<path d="M193.256 36.9979V8.98941H197.851L198.416 11.7668C199.06 10.9062 199.906 10.1499 200.955 9.49801C202.029 8.84602 203.413 8.52002 205.106 8.52002C206.987 8.52002 208.666 8.96334 210.144 9.85006C211.622 10.7367 212.79 11.9493 213.651 13.488C214.511 15.0266 214.94 16.7739 214.94 18.7298C214.94 20.6857 214.511 22.433 213.651 23.9716C212.79 25.4841 211.622 26.6838 210.144 27.5705C208.666 28.4311 206.987 28.8614 205.106 28.8614C203.601 28.8614 202.284 28.5875 201.156 28.0399C200.028 27.4922 199.114 26.7229 198.416 25.7319V36.9979H193.256ZM204.018 24.4802C205.657 24.4802 207.014 23.9455 208.089 22.8763C209.163 21.807 209.701 20.4249 209.701 18.7298C209.701 17.0347 209.163 15.6395 208.089 14.5442C207.014 13.4489 205.657 12.9012 204.018 12.9012C202.352 12.9012 200.981 13.4489 199.906 14.5442C198.859 15.6134 198.335 16.9956 198.335 18.6907C198.335 20.3858 198.859 21.781 199.906 22.8763C200.981 23.9455 202.352 24.4802 204.018 24.4802Z" fill="white"/>
<path d="M123.807 6.30935C125.602 6.30935 127.057 4.89695 127.057 3.15467C127.057 1.4124 125.602 0 123.807 0C122.012 0 120.557 1.4124 120.557 3.15467C120.557 4.89695 122.012 6.30935 123.807 6.30935Z" fill="white"/>
<path d="M116.656 6.30945C118.093 6.30945 119.257 5.17953 119.257 3.7857C119.257 2.39188 118.093 1.26196 116.656 1.26196C115.22 1.26196 114.056 2.39188 114.056 3.7857C114.056 5.17953 115.22 6.30945 116.656 6.30945Z" fill="white"/>
<path d="M130.958 6.30945C132.394 6.30945 133.559 5.17953 133.559 3.7857C133.559 2.39188 132.394 1.26196 130.958 1.26196C129.522 1.26196 128.358 2.39188 128.358 3.7857C128.358 5.17953 129.522 6.30945 130.958 6.30945Z" fill="white"/>
</g>
<defs>
<clipPath id="clip0_306_210">
<rect width="215" height="37" fill="white"/>
</clipPath>
</defs>
</svg>
