<svg width="260" height="45" viewBox="0 0 260 45" fill="none" xmlns="http://www.w3.org/2000/svg">
<g clip-path="url(#clip0_306_123)">
<path d="M9.017 34.5309L0 1.22778H6.67745L12.8188 27.7276L20.0324 1.22778H26.9048L33.9234 27.7276L40.0647 1.22778H46.791L37.5302 34.5309H30.1217L23.3467 9.83903L16.3768 34.5309H9.017Z" fill="#297FFF"/>
<path d="M60.1961 35.1018C57.8565 35.1018 55.7444 34.5784 53.8598 33.5318C52.0076 32.4851 50.5292 31.0419 49.4244 29.2023C48.3521 27.3311 47.8159 25.1743 47.8159 22.732C47.8159 20.2899 48.3684 18.1489 49.4731 16.3093C50.578 14.438 52.0564 12.979 53.9086 11.9323C55.7932 10.8856 57.9052 10.3623 60.2448 10.3623C62.5518 10.3623 64.6314 10.8856 66.4835 11.9323C68.3682 12.979 69.8467 14.438 70.919 16.3093C72.0237 18.1489 72.5762 20.2899 72.5762 22.732C72.5762 25.1743 72.0237 27.3311 70.919 29.2023C69.8467 31.0419 68.3682 32.4851 66.4835 33.5318C64.5989 34.5784 62.503 35.1018 60.1961 35.1018ZM60.1961 29.8208C61.8207 29.8208 63.2342 29.234 64.4364 28.0605C65.6387 26.8553 66.2398 25.0791 66.2398 22.732C66.2398 20.3849 65.6387 18.6246 64.4364 17.4511C63.2342 16.2459 61.837 15.6432 60.2448 15.6432C58.5876 15.6432 57.1579 16.2459 55.9557 17.4511C54.7859 18.6246 54.2009 20.3849 54.2009 22.732C54.2009 25.0791 54.7859 26.8553 55.9557 28.0605C57.1579 29.234 58.5713 29.8208 60.1961 29.8208Z" fill="#297FFF"/>
<path d="M78.1543 34.5308V10.9332H83.7108L84.2956 15.3577C85.1729 13.8353 86.359 12.6301 87.8536 11.742C89.3808 10.8222 91.168 10.3623 93.2151 10.3623V16.7851H91.4605C90.0958 16.7851 88.8772 16.9912 87.805 17.4035C86.7326 17.8159 85.8878 18.5295 85.2704 19.5445C84.6855 20.5594 84.3931 21.9709 84.3931 23.7787V34.5308H78.1543Z" fill="#297FFF"/>
<path d="M97.479 34.5308V0.276123H103.718V20.4959L112.296 10.9331H119.704L109.81 21.6853L121.313 34.5308H113.515L103.718 22.6843V34.5308H97.479Z" fill="#297FFF"/>
<path d="M125.425 34.5308V10.9331H131.664V34.5308H125.425Z" fill="#297FFF"/>
<path d="M149.776 35.1018C147.437 35.1018 145.324 34.5784 143.44 33.5318C141.587 32.4851 140.109 31.0419 139.004 29.2023C137.932 27.3311 137.396 25.1743 137.396 22.732C137.396 20.2899 137.948 18.1489 139.053 16.3093C140.157 14.438 141.636 12.979 143.489 11.9323C145.373 10.8856 147.485 10.3623 149.825 10.3623C152.132 10.3623 154.211 10.8856 156.063 11.9323C157.949 12.979 159.426 14.438 160.498 16.3093C161.604 18.1489 162.156 20.2899 162.156 22.732C162.156 25.1743 161.604 27.3311 160.498 29.2023C159.426 31.0419 157.949 32.4851 156.063 33.5318C154.178 34.5784 152.083 35.1018 149.776 35.1018ZM149.776 29.8208C151.401 29.8208 152.815 29.234 154.017 28.0605C155.219 26.8553 155.82 25.0791 155.82 22.732C155.82 20.3849 155.219 18.6246 154.017 17.4511C152.815 16.2459 151.417 15.6432 149.825 15.6432C148.167 15.6432 146.737 16.2459 145.535 17.4511C144.366 18.6246 143.781 20.3849 143.781 22.732C143.781 25.0791 144.366 26.8553 145.535 28.0605C146.737 29.234 148.151 29.8208 149.776 29.8208Z" fill="#297FFF"/>
<path d="M165.687 34.5309L178.165 1.22778H185.183L197.661 34.5309H191.032L188.303 26.8236H174.996L172.218 34.5309H165.687ZM176.702 22.066H186.596L181.625 8.22145L176.702 22.066Z" fill="#297FFF"/>
<path d="M201.91 44.9976V10.9332H207.465L208.148 14.3111C208.928 13.2645 209.951 12.3446 211.218 11.5517C212.518 10.7588 214.192 10.3623 216.239 10.3623C218.514 10.3623 220.544 10.9015 222.332 11.9799C224.118 13.0583 225.532 14.5331 226.572 16.4045C227.612 18.2758 228.132 20.4008 228.132 22.7796C228.132 25.1584 227.612 27.2835 226.572 29.1547C225.532 30.9943 224.118 32.4534 222.332 33.5318C220.544 34.5784 218.514 35.1018 216.239 35.1018C214.419 35.1018 212.827 34.7687 211.462 34.1027C210.097 33.4366 208.993 32.501 208.148 31.2957V44.9976H201.91ZM214.924 29.7733C216.905 29.7733 218.546 29.1231 219.846 27.8226C221.146 26.5222 221.795 24.8412 221.795 22.7796C221.795 20.718 221.146 19.0211 219.846 17.689C218.546 16.3569 216.905 15.6908 214.924 15.6908C212.908 15.6908 211.251 16.3569 209.951 17.689C208.684 18.9894 208.051 20.6704 208.051 22.732C208.051 24.7937 208.684 26.4905 209.951 27.8226C211.251 29.1231 212.908 29.7733 214.924 29.7733Z" fill="#297FFF"/>
<path d="M233.705 44.9976V10.9332H239.262L239.944 14.3111C240.724 13.2645 241.747 12.3446 243.015 11.5517C244.314 10.7588 245.987 10.3623 248.035 10.3623C250.309 10.3623 252.341 10.9015 254.127 11.9799C255.915 13.0583 257.328 14.5331 258.368 16.4045C259.408 18.2758 259.928 20.4008 259.928 22.7796C259.928 25.1584 259.408 27.2835 258.368 29.1547C257.328 30.9943 255.915 32.4534 254.127 33.5318C252.341 34.5784 250.309 35.1018 248.035 35.1018C246.215 35.1018 244.623 34.7687 243.259 34.1027C241.894 33.4366 240.789 32.501 239.944 31.2957V44.9976H233.705ZM246.719 29.7733C248.701 29.7733 250.342 29.1231 251.642 27.8226C252.941 26.5222 253.592 24.8412 253.592 22.7796C253.592 20.718 252.941 19.0211 251.642 17.689C250.342 16.3569 248.701 15.6908 246.719 15.6908C244.705 15.6908 243.047 16.3569 241.747 17.689C240.48 18.9894 239.846 20.6704 239.846 22.732C239.846 24.7937 240.48 26.4905 241.747 27.8226C243.047 29.1231 244.705 29.7733 246.719 29.7733Z" fill="#297FFF"/>
<path d="M149.72 7.67353C151.891 7.67353 153.651 5.95575 153.651 3.83676C153.651 1.71778 151.891 0 149.72 0C147.549 0 145.79 1.71778 145.79 3.83676C145.79 5.95575 147.549 7.67353 149.72 7.67353Z" fill="#297FFF"/>
<path d="M141.073 7.6735C142.809 7.6735 144.217 6.29927 144.217 4.60408C144.217 2.90889 142.809 1.53467 141.073 1.53467C139.336 1.53467 137.928 2.90889 137.928 4.60408C137.928 6.29927 139.336 7.6735 141.073 7.6735Z" fill="#FC2F5C"/>
<path d="M158.368 7.6735C160.104 7.6735 161.512 6.29927 161.512 4.60408C161.512 2.90889 160.104 1.53467 158.368 1.53467C156.631 1.53467 155.223 2.90889 155.223 4.60408C155.223 6.29927 156.631 7.6735 158.368 7.6735Z" fill="#FECA15"/>
</g>
<defs>
<clipPath id="clip0_306_123">
<rect width="260" height="45" fill="white"/>
</clipPath>
</defs>
</svg>
