<svg width="33" height="11" viewBox="0 0 33 11" fill="none" xmlns="http://www.w3.org/2000/svg">
<path d="M28.7693 11.0001C31.1059 11.0001 33.0001 9.10593 33.0001 6.76934C33.0001 4.43275 31.1059 2.53857 28.7693 2.53857C26.4327 2.53857 24.5386 4.43275 24.5386 6.76934C24.5386 9.10593 26.4327 11.0001 28.7693 11.0001Z" fill="#FECA15"/>
<path d="M4.23077 11.0001C6.56736 11.0001 8.46154 9.10593 8.46154 6.76934C8.46154 4.43275 6.56736 2.53857 4.23077 2.53857C1.89418 2.53857 0 4.43275 0 6.76934C0 9.10593 1.89418 11.0001 4.23077 11.0001Z" fill="#FC2F5C"/>
<path d="M16.5 11C19.5376 11 22 8.53757 22 5.5C22 2.46243 19.5376 0 16.5 0C13.4624 0 11 2.46243 11 5.5C11 8.53757 13.4624 11 16.5 11Z" fill="#297FFF"/>
</svg>
