<svg width="20" height="19" viewBox="0 0 20 19" fill="none" xmlns="http://www.w3.org/2000/svg">
<path d="M7.13282 3.16643V13.4586M13.1082 5.24108V15.8336M1.9082 6.15893V13.8627C1.9082 15.3666 3.03282 15.9841 4.40051 15.2402L6.3582 14.1798C6.78282 13.9497 7.49128 13.9263 7.93282 14.1397L12.3082 16.2223C12.7497 16.4277 13.4582 16.4123 13.8828 16.1822L17.4913 14.2193C17.9497 13.9657 18.3336 13.3482 18.3336 12.8418V5.13731C18.3336 3.63339 17.2082 3.01589 15.8413 3.75981L13.8828 4.82089C13.4582 5.05035 12.7497 5.07373 12.3082 4.86035L7.93282 2.78569C7.49128 2.58035 6.78282 2.59569 6.3582 2.82589L2.75051 4.78873C2.28282 5.04231 1.9082 5.65981 1.9082 6.15819V6.15893Z" stroke="#060709" stroke-width="1.5" stroke-linecap="round" stroke-linejoin="round"/>
</svg>
