<svg width="20" height="20" viewBox="0 0 20 20" fill="none" xmlns="http://www.w3.org/2000/svg">
<path d="M18.3076 15.0116C18.3076 15.2966 18.2414 15.5889 18.0999 15.8739C17.9543 16.1684 17.7632 16.4406 17.5329 16.6814C17.1252 17.1089 16.6745 17.418 16.1668 17.6161C15.6515 17.818 15.0988 17.9202 14.5414 17.9164C13.6914 17.9164 12.7829 17.7264 11.8245 17.3391C10.8668 16.9511 9.90832 16.4286 8.95832 15.7716C7.98988 15.0986 7.07603 14.3575 6.22448 13.5545C5.38193 12.7486 4.60484 11.8834 3.89986 10.9661C3.21602 10.0636 2.66602 9.16107 2.26602 8.26661C1.86602 7.36411 1.66602 6.50107 1.66602 5.6775C1.66602 5.13892 1.76602 4.62519 1.96602 4.15019C2.16602 3.66642 2.48294 3.22357 2.92448 2.8275C3.45832 2.32911 4.0414 2.08357 4.65832 2.08357C4.8914 2.08357 5.12448 2.13107 5.33294 2.22607C5.54986 2.32107 5.7414 2.46357 5.8914 2.66892L7.82448 5.25803C7.97448 5.45534 8.08294 5.63803 8.15832 5.81196C8.23294 5.97857 8.27448 6.14446 8.27448 6.295C8.27448 6.485 8.21679 6.675 8.09986 6.85769C7.9914 7.03892 7.83294 7.22892 7.63294 7.41892L6.99986 8.04446C6.95575 8.08567 6.92113 8.13514 6.89822 8.18974C6.87531 8.24434 6.86461 8.30287 6.86679 8.36161C6.86679 8.42446 6.87448 8.48 6.8914 8.54357C6.91679 8.60642 6.9414 8.65392 6.95832 8.70142C7.10832 8.96303 7.36602 9.30357 7.73294 9.715C8.1219 10.1439 8.52491 10.5611 8.9414 10.9661C9.36834 11.3689 9.81042 11.7569 10.2668 12.1295C10.6999 12.478 11.0583 12.7155 11.3414 12.858C11.3829 12.8734 11.4337 12.8975 11.4914 12.9209C11.558 12.9436 11.6284 12.9545 11.6991 12.953C11.7629 12.9545 11.8262 12.9433 11.8852 12.9201C11.9441 12.897 11.9973 12.8624 12.0414 12.8186L12.6745 12.2245C12.8829 12.0271 13.0829 11.8766 13.2745 11.7809C13.4668 11.6705 13.6583 11.615 13.8668 11.615C14.0245 11.615 14.1914 11.6464 14.3745 11.7173C14.5583 11.7889 14.7499 11.8927 14.9583 12.0264L17.716 13.887C17.9329 14.0295 18.0829 14.1961 18.1745 14.3941C18.2583 14.5914 18.3083 14.7895 18.3083 15.0116H18.3076Z" stroke="#060709" stroke-width="1.5" stroke-miterlimit="10"/>
</svg>
