<svg width="51" height="74" viewBox="0 0 51 74" fill="none" xmlns="http://www.w3.org/2000/svg">
<g id="Favicon" clip-path="url(#clip0_3_2009)">
<path id="Vector" d="M25.5559 73.9468C20.7668 73.9468 16.4433 72.8442 12.5853 70.6393C8.79393 68.4342 5.76745 65.3941 3.50593 61.5187C1.31089 57.5766 0.213379 53.033 0.213379 47.8881C0.213379 42.7433 1.34415 38.233 3.60568 34.3577C5.86723 30.4155 8.89371 27.3419 12.6851 25.137C16.543 22.9321 20.8666 21.8296 25.6557 21.8296C30.3785 21.8296 34.6354 22.9321 38.4269 25.137C42.2848 27.3419 45.3112 30.4155 47.5062 34.3577C49.7678 38.233 50.8985 42.7433 50.8985 47.8881C50.8985 53.033 49.7678 57.5766 47.5062 61.5187C45.3112 65.3941 42.2848 68.4342 38.4269 70.6393C34.5687 72.8442 30.2786 73.9468 25.5559 73.9468ZM25.5559 62.8216C28.8818 62.8216 31.7753 61.5855 34.2364 59.1133C36.6974 56.5743 37.928 52.8325 37.928 47.8881C37.928 42.9436 36.6974 39.2353 34.2364 36.7631C31.7753 34.2241 28.9149 32.9545 25.6557 32.9545C22.2634 32.9545 19.3367 34.2241 16.8756 36.7631C14.481 39.2353 13.2838 42.9436 13.2838 47.8881C13.2838 52.8325 14.481 56.5743 16.8756 59.1133C19.3367 61.5855 22.2302 62.8216 25.5559 62.8216Z" fill="#297FFF"/>
<path id="Vector_2" d="M25.4418 16.1654C29.8856 16.1654 33.4881 12.5466 33.4881 8.08268C33.4881 3.61874 29.8856 0 25.4418 0C20.9979 0 17.3955 3.61874 17.3955 8.08268C17.3955 12.5466 20.9979 16.1654 25.4418 16.1654Z" fill="#297FFF"/>
<path id="Vector_3" d="M7.73976 16.1655C11.2948 16.1655 14.1768 13.2705 14.1768 9.6993C14.1768 6.12814 11.2948 3.23314 7.73976 3.23314C4.18469 3.23314 1.30273 6.12814 1.30273 9.6993C1.30273 13.2705 4.18469 16.1655 7.73976 16.1655Z" fill="#FC2F5C"/>
<path id="Vector_4" d="M43.1436 16.1655C46.6986 16.1655 49.5806 13.2705 49.5806 9.6993C49.5806 6.12814 46.6986 3.23314 43.1436 3.23314C39.5885 3.23314 36.7065 6.12814 36.7065 9.6993C36.7065 13.2705 39.5885 16.1655 43.1436 16.1655Z" fill="#FECA15"/>
</g>
<defs>
<clipPath id="clip0_3_2009">
<rect width="51" height="74" fill="white"/>
</clipPath>
</defs>
</svg>
